<?xml version="1.0" encoding="UTF-8"?>
<svg width="220px" height="199px" viewBox="0 0 220 199" version="1.1" xmlns="http://www.w3.org/2000/svg" xmlns:xlink="http://www.w3.org/1999/xlink">
    <!-- Generator: Sketch 59.1 (86144) - https://sketch.com -->
    <title>np_heart_48896_9B9B9B</title>
    <desc>Created with Sketch.</desc>
    <g id="Page-1" stroke="none" stroke-width="1" fill="none" fill-rule="evenodd">
        <g id="shape-svg" transform="translate(-886.000000, -528.000000)" fill="#9B9B9B" fill-rule="nonzero">
            <g id="np_heart_48896_9B9B9B" transform="translate(886.000000, 528.000000)">
                <path d="M142.797802,42.4703297 C128.735385,42.4703297 116.578022,50.5747253 110.723077,62.3707692 C104.859341,50.5747253 92.7028571,42.4703297 78.6395604,42.4703297 C58.8679121,42.4703297 42.8307692,58.4989011 42.8307692,78.2791209 C42.8307692,125.523077 109.975824,151.391209 109.975824,151.391209 C109.975824,151.391209 178.606593,125.197802 178.606593,78.2791209 C178.606593,58.4989011 162.569451,42.4703297 142.797802,42.4703297 L142.797802,42.4703297 Z M133.525714,27.0685714 C130.289011,26.4676044 128.16,23.3597802 128.760879,20.1230769 L131.585495,4.98747253 C132.186462,1.75934066 135.294286,-0.36967033 138.530989,0.231208791 C141.759121,0.832175824 143.896703,3.94 143.287253,7.1767033 L140.462637,22.3123077 C139.86167,25.5404396 136.753846,27.6694505 133.525934,27.0685714 L133.525714,27.0685714 Z M192.686154,71.7806593 C192.806347,68.4925275 195.562198,65.9254945 198.85033,66.0371429 L214.243516,66.578 C217.531648,66.6981912 220.098681,69.454044 219.987033,72.7336044 C219.866842,76.0217363 217.110989,78.5887692 213.822857,78.4771209 L198.42967,77.9362637 C195.141538,77.8246549 192.565934,75.0687912 192.686154,71.7806593 Z M49.2356044,181.10378 C48.4457582,181.10378 47.6387692,180.949202 46.8747253,180.614374 C43.8613187,179.300835 42.4705495,175.79811 43.7841758,172.784703 C46.5657143,166.354374 51.012967,161.323604 55.3054945,156.472835 C56.6791209,154.918923 58.0441758,153.373495 59.3318681,151.793934 C61.4094725,149.244044 65.1610989,148.866462 67.710989,150.944 C70.2608791,153.021604 70.6384615,156.773231 68.5609231,159.323121 C67.1787033,161.022989 65.702022,162.688396 64.2253187,164.362681 C60.3791648,168.715429 56.7477363,172.827736 54.713011,177.52378 C53.7257143,179.76444 51.5365275,181.10378 49.2356484,181.10378 L49.2356044,181.10378 Z M206.883956,131.626813 L187.395604,123.814286 C184.347912,122.586615 182.862637,119.126813 184.081758,116.079121 C185.309429,113.022857 188.769231,111.546154 191.816923,112.765275 L211.305275,120.577802 C214.352967,121.796901 215.838242,125.265275 214.619121,128.312967 C213.400022,131.360659 209.931648,132.845934 206.883956,131.626813 Z M104.523516,192.633407 L104.978527,171.634066 C105.055796,168.345934 107.777209,165.744615 111.056769,165.813407 C114.344901,165.890675 116.94622,168.603516 116.877429,171.90022 L116.413824,192.890989 C116.345143,196.170549 113.623714,198.78044 110.335582,198.711648 C107.056022,198.642967 104.454703,195.921538 104.523495,192.633407 L104.523516,192.633407 Z M172.791648,38.5632308 C171.357934,38.5632308 169.915604,38.047956 168.773846,37.0005714 C166.344176,34.7770549 166.181099,31.0166154 168.396088,28.5957363 C172.894769,23.6763956 178.518066,19.5040879 186.081582,15.4603516 C188.983341,13.915033 192.589055,15.0053407 194.134549,17.9071648 C195.679868,20.8089231 194.580967,24.4146374 191.687736,25.9601319 C185.343341,29.3427692 180.733011,32.7337582 177.178725,36.622989 C176.011143,37.9107692 174.405758,38.5632308 172.791692,38.5632308 L172.791648,38.5632308 Z M2.71912088,88.8883516 C1.55153846,88.0641758 0.667274725,86.8107473 0.332527473,85.2997802 C-0.371450549,82.089011 1.66323077,78.9125275 4.87406593,78.2083516 C11.3815385,76.7832088 18.3784615,76.6115165 26.896044,77.6674945 C30.1584615,78.070989 32.4764835,81.0501319 32.072967,84.3123297 C31.6694505,87.5745275 28.6903297,89.8841978 25.4281319,89.4806813 C18.2938462,88.5964176 12.576044,88.708022 7.42505495,89.8326813 C5.72518681,90.2104396 4.03384615,89.8155121 2.72043956,88.8883077 L2.71912088,88.8883516 Z M152.763077,151.80044 C152.608543,150.375297 152.969121,148.89011 153.879143,147.636703 C155.827978,144.983956 159.545297,144.417363 162.198264,146.36611 C167.572549,150.306769 172.320242,155.449187 177.153648,162.540615 C179.008044,165.253582 178.304066,168.962374 175.582571,170.816659 C172.869604,172.671055 169.160813,171.958484 167.315099,169.245582 C163.262791,163.304703 159.408066,159.080747 155.158615,155.955692 C153.759231,154.925473 152.935099,153.405802 152.763451,151.800527 L152.763077,151.80044 Z M12.0773626,139.72967 C10.677978,139.412022 9.39010989,138.579253 8.51450549,137.3 C6.65151648,134.595604 7.33832967,130.886813 10.0426593,129.023956 C15.5285934,125.246374 21.9503516,122.456264 30.234967,120.215604 C33.4114505,119.357099 36.6738681,121.245824 37.5323297,124.413846 C38.3907912,127.581868 36.5021099,130.852747 33.3340879,131.702637 C26.3885934,133.574198 21.1345275,135.832088 16.7905714,138.81978 C15.3568571,139.824242 13.6483736,140.098967 12.0773846,139.729802 L12.0773626,139.72967 Z M41.2487912,43.4395604 C39.9781758,43.4395604 38.6989011,43.0274725 37.6087912,42.1947033 C36.6987692,41.4907253 35.1276923,40.4433187 33.4707692,39.3358022 C29.2468132,36.5111868 23.9841758,32.999978 20.9707692,29.5659121 C18.8072967,27.0933846 19.0476923,23.3331648 21.5202198,21.1696484 C23.9927473,19.0061978 27.752967,19.2465714 29.9164835,21.7190989 C31.8996484,23.9769011 36.6301099,27.1362418 40.0813187,29.4456923 C42.0043956,30.7248791 43.6613187,31.8322857 44.8975824,32.7938242 C47.4989011,34.8027473 47.970989,38.5459121 45.9621538,41.1472308 C44.785978,42.6496264 43.0261099,43.4395604 41.248967,43.4395604 L41.2487912,43.4395604 Z M89.4795604,28.0978022 C87.3246813,28.0978022 85.2384615,26.9216264 84.1824176,24.8696703 C83.2122857,22.9895165 82.4396264,21.1694505 81.7013187,19.418022 C80.3792088,16.2843956 79.2287912,13.5802198 77.2885714,11.3650549 C75.1250989,8.88395604 75.3826593,5.13230769 77.8551868,2.96879121 C80.3277143,0.805340659 84.0879341,1.06287912 86.2514505,3.53540659 C89.4450769,7.19276923 91.1536484,11.2277143 92.6560659,14.782 C93.3428791,16.4045934 93.9953626,17.9413407 94.7594286,19.418044 C96.2704176,22.3369451 95.12,25.9340879 92.200967,27.4365055 C91.3252747,27.8829231 90.3980879,28.0978022 89.4794286,28.0978022 L89.4795604,28.0978022 Z" id="Shape"></path>
            </g>
        </g>
    </g>
</svg>