<?xml version="1.0" encoding="UTF-8"?>
<svg width="144px" height="198px" viewBox="0 0 144 198" version="1.1" xmlns="http://www.w3.org/2000/svg" xmlns:xlink="http://www.w3.org/1999/xlink">
    <!-- Generator: Sketch 59.1 (86144) - https://sketch.com -->
    <title>np_hearts_415964_9B9B9B</title>
    <desc>Created with Sketch.</desc>
    <g id="Page-1" stroke="none" stroke-width="1" fill="none" fill-rule="evenodd">
        <g id="shape-svg" transform="translate(-35.000000, -348.000000)" fill="#9B9B9B" fill-rule="nonzero">
            <g id="np_hearts_415964_9B9B9B" transform="translate(35.000000, 348.000000)">
                <path d="M36.7521739,75.1369565 C44.4628261,56.6841304 59.8847826,56.6841304 67.5956522,62.535 C75.3063043,68.3773913 75.3063043,80.0706522 67.5956522,91.7632609 C62.2032609,100.526739 48.3191304,109.298913 36.7521739,115.141522 C25.1863043,109.29913 11.3021739,100.526957 5.90217391,91.7632609 C-1.8,80.07 -1.8,68.3763043 5.90217391,62.535 C13.6213043,56.6841304 29.0434783,56.6841304 36.7521739,75.1369565 Z" id="Path"></path>
                <path d="M86.4565217,113.384783 C92.4008696,99.1693478 104.28087,99.1693478 110.217391,103.67 C116.161739,108.17913 116.161739,117.180435 110.217391,126.189565 C106.064783,132.940652 95.3736957,139.7 86.4565217,144.20087 C77.5484783,139.700217 66.8573913,132.940652 62.6956522,126.189565 C56.7597826,117.179783 56.7597826,108.178261 62.6956522,103.67 C68.64,99.1693478 80.52,99.1693478 86.4565217,113.384783 Z" id="Path"></path>
                <path d="M53.576087,150.843478 C57.7115217,140.950435 65.9826087,140.950435 70.1182609,144.083913 C74.2536957,147.217391 74.2536957,153.492826 70.1182609,159.759783 C67.2226087,164.464348 59.7836957,169.168696 53.576087,172.302174 C47.3684783,169.168696 39.9297826,164.46413 37.033913,159.759783 C32.8984783,153.492826 32.8984783,147.217391 37.033913,144.083913 C41.1693478,140.950435 49.4404348,140.950435 53.576087,150.843478 Z" id="Path"></path>
                <path d="M70.2521739,181.480435 C73.3856522,173.990652 79.6441304,173.990652 82.7691304,176.368261 C85.9026087,178.737391 85.9026087,183.484348 82.7691304,188.222826 C80.5782609,191.78087 74.9480435,195.338913 70.2521739,197.716739 C65.5647826,195.338913 59.926087,191.78087 57.7352174,188.222826 C54.6102174,183.484348 54.6102174,178.737391 57.7352174,176.368261 C60.8686957,173.990435 67.1271739,173.990435 70.2521739,181.480435 Z" id="Path"></path>
                <path d="M97.1217391,20.5521739 C106.853478,-2.74130435 126.326087,-2.74130435 136.056522,4.63847826 C145.788261,12.0263043 145.788261,26.7863043 136.056522,41.545 C129.237609,52.6097826 111.719565,63.6841304 97.1217391,71.0623913 C82.5156522,63.6830435 64.9978261,52.6095652 58.1782609,41.545 C48.4465217,26.786087 48.4465217,12.0276087 58.1782609,4.63847826 C67.9184783,-2.74086957 87.3826087,-2.74086957 97.1217391,20.5521739 Z" id="Path"></path>
            </g>
        </g>
    </g>
</svg>