<?xml version="1.0" encoding="UTF-8"?>
<svg width="200px" height="198px" viewBox="0 0 200 198" version="1.1" xmlns="http://www.w3.org/2000/svg" xmlns:xlink="http://www.w3.org/1999/xlink">
    <!-- Generator: Sketch 59.1 (86144) - https://sketch.com -->
    <title>np_heart_1724399_9B9B9B</title>
    <desc>Created with Sketch.</desc>
    <g id="Page-1" stroke="none" stroke-width="1" fill="none" fill-rule="evenodd">
        <g id="shape-svg" transform="translate(-300.000000, -278.000000)" fill="#9B9B9B" fill-rule="nonzero">
            <g id="np_heart_1724399_9B9B9B" transform="translate(299.000000, 278.000000)">
                <path d="M201,54.062 L201,68.4996 C200.61718,71.2574 200.25782,74.023 199.88282,76.7808 C197.96094,89.4058 193.42962,101.4988 186.57822,112.2808 C176.57822,128.7184 163.21822,142.2808 148.69622,154.8428 L148.704032,154.8428 C129.860232,170.6788 109.758032,184.9368 88.580032,197.4748 C88.119092,196.49824 87.658152,195.61542 87.259712,194.6936 L87.259712,194.701412 C77.931512,174.005412 64.877712,155.201412 48.759712,139.217412 C40.337912,130.795612 31.681512,122.600212 23.299712,114.139412 C16.510712,107.569012 10.932512,99.842612 6.846512,91.319412 C1.979312,80.389812 0.088712,68.373412 1.362112,56.475412 C1.901172,47.920812 4.658912,39.647212 9.362112,32.475412 C16.221512,22.295812 26.065312,16.631612 37.886112,14.295812 C52.050112,11.241212 66.840112,13.366132 79.566112,20.295812 C86.987912,24.178612 93.277112,29.920812 97.823912,36.959812 C98.441092,35.819192 99.027032,34.756612 99.581732,33.702012 C103.573932,25.827012 108.847332,18.678612 115.206732,12.562012 C124.534932,3.562012 137.416732,-0.742588 150.284732,0.843212 C163.230132,1.921332 175.346732,7.663612 184.386732,16.999412 C192.941332,25.866612 198.488332,37.203412 200.246132,49.397412 C200.480512,50.998972 200.785192,52.538012 201.003952,54.061412 L201,54.062 Z" id="Path"></path>
            </g>
        </g>
    </g>
</svg>