<?xml version="1.0" encoding="UTF-8"?>
<svg fill="#353535" width="100pt" height="100pt" version="1.1" viewBox="0 0 100 100" xmlns="http://www.w3.org/2000/svg">
 <path d="m75.801 5h-51.602c-10.598 0-19.199 8.6016-19.199 19.199v51.602c0 10.598 8.6016 19.199 19.199 19.199h51.602c10.598 0 19.199-8.6016 19.199-19.199v-51.602c0-10.598-8.6016-19.199-19.199-19.199zm-65.801 70.801v-3.1992l29.602-29.5 3.6016 3.6016-32.703 32.598c-0.30078-1.1016-0.5-2.3008-0.5-3.5zm0-10.199v-7.1992l22.398-22.402 3.6016 3.6016zm0-14.301v-7.1016l15.301-15.301 3.6016 3.6016zm0-14.199v-7.1992l8.1016-8.1016 3.6016 3.6016zm2.6016-21l2.1016 2.1016-4.5 4.5c0.097656-2.5039 0.99609-4.7031 2.3984-6.6016zm0.097657 68l33.898-33.898 3.6016 3.6016-33.801 33.895c-1.3984-1-2.6992-2.1992-3.6992-3.5977zm8.6992 5.5977l32.398-32.398 3.6016 3.6016-28.898 28.797 0.30078 0.30078h-4.6016c-1 0-1.8984-0.10156-2.8008-0.30078zm62.5-2.3008c-1.6016 1.1016-3.5 1.8984-5.5 2.3008l3.8984-3.8984zm-12.598 2.3008l0.30078 0.30078h-7.8008l11.301-11.301 3.6016 3.6016zm-14 0.30078h-7.6992l18.398-18.398 3.6016 3.6016-14.602 14.496zm-14.199 0h-7.8008l25.602-25.602 3.6016 3.6016-21.703 21.699zm46.898-14.199c0 3-1 5.8008-2.6016 8.1016l-71.297-71.301c2.3008-1.6016 5.1016-2.6016 8.1016-2.6016h51.602c7.7969 0 14.195 6.3984 14.195 14.199z"/>
</svg>
