<?xml version="1.0" encoding="UTF-8"?>
<svg width="50px" height="50px" viewBox="0 0 50 50" version="1.1" xmlns="http://www.w3.org/2000/svg" xmlns:xlink="http://www.w3.org/1999/xlink">
    <!-- Generator: Sketch 59.1 (86144) - https://sketch.com -->
    <title>np_copy</title>
    <desc>Created with Sketch.</desc>
    <g id="Page-1" stroke="none" stroke-width="1" fill="none" fill-rule="evenodd">
        <g id="Artboard" transform="translate(-593.000000, -25.000000)" fill="#9B9B9B" fill-rule="nonzero">
            <g id="fonts-edit-group">
                <g id="np_copy" transform="translate(593.000000, 25.000000)">
                    <path d="M3.67629608,15.6469687 L25.942328,15.6469687 C27.8831207,15.6469687 29.4835979,17.2473841 29.4835979,19.1882386 L29.4835979,45.8282533 C29.4835979,47.769046 27.8831825,49.3695232 25.942328,49.3695232 L3.67629608,49.3695232 C1.73550343,49.3695232 0.135026171,47.7691078 0.135026171,45.8282533 L0.135026171,19.1882386 C0.135026171,17.2474459 1.73544163,15.6469687 3.67629608,15.6469687 Z M25.8675538,19.1882386 L3.83820389,19.1882386 L3.67646911,45.8282533 L25.942501,45.8282533 L25.8675538,19.1882386 Z" id="Shape"></path>
                    <path d="M23.4951718,0.0673585935 L45.7612037,0.0673585935 C46.7316,0.0673585935 47.61511,0.463241732 48.2572413,1.1053607 L48.2572413,1.11260267 L48.2644826,1.11260267 L48.2717246,1.11984465 C48.908974,1.76197598 49.3049066,2.64548589 49.3049066,3.61100026 L49.3049066,30.251015 C49.3049066,31.2214113 48.9090234,32.1049212 48.2669045,32.7470526 L48.2524205,32.7615359 C47.6102892,33.3987853 46.7316612,33.7947178 45.7612649,33.7947178 L31.8643837,33.7947178 L31.8643837,30.2534479 L45.7612649,30.2534479 L45.7612649,3.61343321 L23.495233,3.61343321 L23.495233,13.4576754 L19.953963,13.4576754 L19.953963,3.61343321 C19.953963,2.64303688 20.3498524,1.75952697 20.9919652,1.11739564 L20.9992071,1.11015366 L21.0064491,1.11015366 C21.6485804,0.468022339 22.5272084,0.0721515591 23.4976047,0.0721515591 L23.4951718,0.0673585935 Z" id="Shape"></path>
                </g>
            </g>
        </g>
    </g>
</svg>