<?xml version="1.0" encoding="UTF-8"?>
<svg fill="#2EB6E8" width="100pt" height="100pt" version="1.1" viewBox="0 0 100 100" xmlns="http://www.w3.org/2000/svg">
 <path d="m80.172 14.285h-60.355c-3.0469 0-5.5312 2.4727-5.5312 5.5273v44.117c0 3.043 2.4844 5.5273 5.5273 5.5273h19.312l9.6562 15.586c0.26172 0.41406 0.71875 0.67188 1.2188 0.67188s0.95703-0.25781 1.2148-0.67188l9.6445-15.586h19.312c3.0586 0 5.543-2.4844 5.543-5.5273v-44.117c0-3.0547-2.4844-5.5273-5.543-5.5273zm-48.027 20.957c-2.3281-2.3281-2.3438-6.1133-0.015625-8.4297l4.5859-4.6016c1.1562-1.1445 2.7852-1.8125 4.4844-1.8125 1.6875 0 3.3281 0.67187 4.4844 1.8281l3.9727 3.957-13.285 13.285zm6.2422 6.2578 13.285-13.285 13.188 13.188-13.285 13.285zm30.828 17.527c-0.8125 0.80078-1.9141 1.2578-3.043 1.2578-0.38672 0-0.78516-0.058594-1.2148-0.1875l-11.215-3.543 13-13 3.5156 11.156c0.48438 1.5195 0.085938 3.1758-1.043 4.3164z"/>
</svg>
