<?xml version="1.0" encoding="UTF-8"?>
<svg width="210px" height="270px" viewBox="0 0 210 270" version="1.1" xmlns="http://www.w3.org/2000/svg" xmlns:xlink="http://www.w3.org/1999/xlink">
    <!-- Generator: Sketch 59.1 (86144) - https://sketch.com -->
    <title>np_cat_114598_9B9B9B</title>
    <desc>Created with Sketch.</desc>
    <g id="Page-1" stroke="none" stroke-width="1" fill="none" fill-rule="evenodd">
        <g id="shape-svg-copy" transform="translate(-147.000000, -315.000000)" fill="#E4E4E4" fill-rule="nonzero">
            <g id="np_cat_114598_9B9B9B" transform="translate(147.000000, 314.000000)">
                <path d="M166.992,58.093 L209.343,56.37034 L209.225814,53.37034 L165.818814,55.13986 C165.643032,54.70627 165.478974,54.27268 165.303174,53.85079 L208.722174,47.74519 L208.300314,44.78035 L164.131314,50.99125 C163.978968,50.60452 163.814904,50.21782 163.662564,49.83109 L207.231564,39.21379 L206.528424,36.29581 L162.512424,47.01841 C150.993024,19.13941 141.746724,0.99841 141.746724,0.99841 L131.996724,16.74841 L89.996724,16.74841 L80.246724,0.99841 C80.246724,0.99841 71.047524,19.04521 59.563224,46.81741 L16.402224,36.30571 L16.343631,36.516649 L15.452991,36.30571 L14.761581,39.21196 L58.342581,49.82926 C58.201956,50.1691 58.061331,50.52067 57.920721,50.86051 L14.630721,44.76691 L14.607285,44.895814 L13.681515,44.76691 L13.259655,47.73175 L56.690655,53.83735 C56.526591,54.24751 56.362515,54.66937 56.186745,55.09126 L13.694745,53.3686 L13.694745,53.403757 L12.757245,53.3686 L12.640059,56.3686 L55.003059,58.09126 C44.385759,84.90376 32.678859,118.55926 24.745059,153.24826 C15.299859,194.59126 19.905159,224.95426 26.409129,244.50226 L13.741029,244.50226 C6.428529,244.50226 0.487029,250.43206 0.487029,257.74456 C0.487029,265.05706 6.416829,270.99856 13.741029,270.99856 L182.245029,270.99856 C182.245029,270.99856 215.245029,231.99856 197.245029,153.24856 C189.311529,118.56256 177.604329,84.91756 166.987029,58.09156 L166.992,58.093 Z M89.319,40.714 C85.8384,40.31557 82.7799,38.54602 80.7759,35.8858 C82.77981,33.21394 85.8267,31.4443 89.319,31.0576 L89.319,40.714 Z M92.04948,40.714 L92.04948,31.0459 C95.53008,31.44433 98.58858,33.21388 100.59258,35.8741 C98.57694,38.54596 95.53008,40.3156 92.04948,40.714 Z M110.99868,52.9717 L105.81888,44.0068 L116.17818,44.0068 L110.99868,52.9717 Z M130.06518,40.714 C126.54948,40.339 123.46758,38.55775 121.45188,35.8741 C123.46752,33.19051 126.54948,31.4092 130.06518,31.0342 L130.06518,40.714 Z M132.79566,40.702282 L132.79566,31.057882 C136.24086,31.468042 139.27626,33.237562 141.25656,35.886082 C139.27608,38.522812 136.24086,40.292482 132.79566,40.702582 L132.79566,40.702282 Z" id="Shape"></path>
            </g>
        </g>
    </g>
</svg>