<?xml version="1.0" encoding="UTF-8"?>
<svg width="51px" height="35px" viewBox="0 0 51 35" version="1.1" xmlns="http://www.w3.org/2000/svg" xmlns:xlink="http://www.w3.org/1999/xlink">
    <!-- Generator: Sketch 59.1 (86144) - https://sketch.com -->
    <title>np_decrease-font-size</title>
    <desc>Created with Sketch.</desc>
    <g id="Page-1" stroke="none" stroke-width="1" fill="none" fill-rule="evenodd">
        <g id="Artboard" transform="translate(-56.000000, -68.000000)" fill="#9B9B9B" fill-rule="nonzero">
            <g id="np_decrease-font-size" transform="translate(56.000000, 68.000000)">
                <path d="M0.21875,10.9375 L3.0625,10.9375 L4.59375,4.59375 C4.8125,3.9375 5.03125,3.28125 5.25,2.84375 C5.46875,2.40625 5.90625,2.1875 6.5625,1.96875 C7.21875,1.75 8.09375,1.96875 9.1875,1.96875 C10.28125,1.96875 11.59375,2.1875 13.34375,2.1875 L12.6875,2.1875 L12.6875,31.0625 C12.6875,31.28125 12.90625,31.5 12.6875,31.71875 C12.46875,31.9375 12.03125,31.9375 11.375,32.15625 L8.09375,32.8125 L8.09375,35 L24.5,35 L24.28125,32.8125 L21,32.15625 C20.125,32.15625 19.90625,31.9375 19.6875,31.71875 C19.46875,31.5 19.6875,31.28125 19.6875,31.0625 L19.6875,2.1875 L19.25,2.1875 C21.21875,2.1875 22.53125,1.96875 23.625,2.1875 C24.71875,2.40625 25.59375,2.40625 26.03125,2.625 C26.6875,2.84375 26.90625,3.0625 27.34375,3.5 C27.5625,3.9375 27.78125,4.59375 28,5.25 L29.3125,10.9375 L33.03125,10.9375 L33.03125,0 L1.09375,0 L0.21875,10.9375 Z M33.03125,17.5 L33.03125,21.875 L50.53125,21.875 L50.53125,17.5 L33.03125,17.5 Z" id="Shape"></path>
            </g>
        </g>
    </g>
</svg>