<?xml version="1.0" encoding="UTF-8"?>
<svg fill="#6A6A6A" width="100pt" height="100pt" version="1.1" viewBox="0 0 100 100" xmlns="http://www.w3.org/2000/svg">
 <path d="m50 8.3945c-22.98 0-41.605 18.629-41.605 41.605s18.629 41.605 41.605 41.605 41.609-18.629 41.609-41.605c0-22.98-18.633-41.605-41.609-41.605zm-10.828 22.602l8.7969-8.7969c0.57812-0.57422 1.3281-0.85938 2.082-0.85938h0.023438 0.023437c0.75391 0 1.5078 0.28516 2.082 0.85938l8.7969 8.7969c1.1523 1.1484 1.1523 3.0156 0 4.1641-0.57422 0.57422-1.3281 0.86328-2.082 0.86328-0.75391 0-1.5078-0.28906-2.082-0.86328l-3.8867-3.8867v15.781c0 1.6289-1.3203 2.9453-2.9453 2.9453-1.6289 0-2.9453-1.3203-2.9453-2.9453v-15.582l-3.6875 3.6875c-0.57812 0.57422-1.3281 0.86328-2.082 0.86328s-1.5078-0.28906-2.082-0.86328c-1.1602-1.1484-1.1602-3.0156-0.011719-4.1641zm33.457 35.457c0 3.9766-3.8984 7.0898-8.8789 7.0898l-27.5 0.003906c-4.9766 0-8.8789-3.1133-8.8789-7.0898l0.003906-19.145c0-3.9766 3.8984-7.0938 8.8789-7.0938h3.7148c0.42188 0.074219 0.85547 0.12109 1.293 0.12109 0.43359 0 0.86328-0.042969 1.2852-0.12109h0.16797v5.7539l-6.4648 0.003906c-2.0156 0-3.1211 1.0039-3.1211 1.3359v19.141c0 0.33203 1.1055 1.3359 3.1211 1.3359h27.5c2.0156 0 3.1211-1.0039 3.1211-1.3359v-19.141c0-0.33203-1.1055-1.3359-3.1211-1.3359h-6.5156v-5.7539h0.39844c0.41016 0.070313 0.82813 0.12109 1.2539 0.12109 0.4375 0 0.86719-0.042969 1.293-0.12109h3.5664c4.9766 0 8.8789 3.1172 8.8789 7.0938z"/>
</svg>
