<?xml version="1.0" encoding="UTF-8"?>
<svg width="54px" height="35px" viewBox="0 0 54 35" version="1.1" xmlns="http://www.w3.org/2000/svg" xmlns:xlink="http://www.w3.org/1999/xlink">
    <!-- Generator: Sketch 59.1 (86144) - https://sketch.com -->
    <title>np_font-size</title>
    <desc>Created with Sketch.</desc>
    <g id="Page-1" stroke="none" stroke-width="1" fill="none" fill-rule="evenodd">
        <g id="Artboard" transform="translate(-78.000000, -407.000000)" fill="#9B9B9B" fill-rule="nonzero">
            <g id="np_font-size" transform="translate(78.000000, 407.000000)">
                <path d="M51.4341406,32.5177344 C50.8424219,32.3895578 50.3211406,32.1972984 49.8725391,31.9409453 C49.2786875,31.588468 48.8215,31.2146406 48.4989531,30.8236797 C48.1763844,30.428475 47.9136328,29.9948359 47.7021563,29.5099219 C46.4503047,26.5576719 44.9357344,22.8385938 43.154125,18.3438281 C41.3703828,13.8513594 38.9094453,7.7371875 35.76475,0 L30.9496797,0 C28.6874219,5.45808594 26.6195234,10.4464063 24.7546797,14.9707031 C22.8833281,19.4952187 21.0205625,24.0132812 19.1579609,28.5228125 C18.852482,29.2918281 18.4722344,29.9604922 18.0151016,30.5201641 C17.5579469,31.0841016 17.000375,31.5562187 16.3424297,31.9407813 C15.9557727,32.1821773 15.4302422,32.3701656 14.7658984,32.5069063 C14.1015547,32.6414867 13.5033828,32.7269359 12.9714922,32.7611156 L12.9714922,34.6346 L26.9829766,34.6346 L26.9829766,32.7589828 C25.1693203,32.5987648 23.8704922,32.3381461 23.0950234,31.9749828 C22.3152891,31.6160961 21.9265156,31.1760531 21.9265156,30.6633578 C21.9265156,30.5031398 21.9542865,30.2211602 22.0119648,29.8195297 C22.0653705,29.4200539 22.2469516,28.7684906 22.5524305,27.8734203 C22.7938266,27.1834281 23.0779445,26.3972953 23.4069227,25.5128891 C23.661132,24.8356938 23.8897094,24.2418422 24.1097664,23.6971 L36.3078133,23.6971 L39.0165398,30.2787406 C39.1276211,30.547907 39.1959805,30.7679367 39.2194797,30.9260219 C39.2451145,31.0862398 39.2579316,31.2315008 39.2579316,31.3596773 C39.2579316,31.7292445 38.6726113,32.0368727 37.4998378,32.2846617 C36.3270644,32.5346 35.6861816,32.6905469 34.8188925,32.7546352 L34.8188925,34.6346 L53.04733,34.6346 L53.04733,32.7589008 C52.5666761,32.7268572 52.026205,32.6478195 51.4344863,32.5175047 L51.4341406,32.5177344 Z M34.8080469,20.0528125 L25.5773437,20.0528125 L30.1595547,8.45085938 L34.8080469,20.0528125 Z" id="Shape"></path>
                <path d="M28.5228125,33.075 C28.0848859,32.9788703 27.7003672,32.8400133 27.3692344,32.6477539 C26.9313078,32.3871352 26.5937656,32.1136977 26.3566406,31.8253086 C26.1216539,31.532643 25.9272562,31.212207 25.7734531,30.8576133 C24.8506016,28.6829102 23.7333359,25.9421367 22.4195781,22.6287852 C21.1079531,19.3176211 19.2942969,14.8144883 16.9764766,9.11276953 L13.4303203,9.11276953 C11.7640469,13.1331758 10.2409453,16.8116758 8.86303906,20.1465195 C7.4851875,23.4790664 6.10941406,26.807457 4.74009375,30.1313633 C4.5157875,30.6974883 4.23594063,31.1888008 3.89839844,31.6053555 C3.56087266,32.0197828 3.15071094,32.3679727 2.66579688,32.6478086 C2.38167891,32.8272492 1.995,32.963968 1.5036875,33.066507 C1.01235313,33.1669078 0.570171875,33.226725 0.18134375,33.252357 L0.179207656,34.6346109 L10.5014733,34.6346109 L10.5014733,33.252357 C9.16633266,33.1348664 8.20930141,32.9426016 7.63677797,32.675568 C7.06638734,32.4085398 6.77588734,32.0881148 6.77588734,31.7078727 C6.77588734,31.590382 6.79724992,31.3831656 6.83997563,31.0883727 C6.87842805,30.7935742 7.01087406,30.3150367 7.23731313,29.6528258 C7.41462094,29.1444016 7.62397016,28.5633414 7.86747719,27.9117945 C7.92942719,27.7430344 8.29899438,26.8052477 8.80744594,25.5192164 L16.9722897,25.5192164 L19.3670006,31.4260133 C19.4481788,31.624682 19.49731,31.7849 19.5165381,31.9045289 C19.5357641,32.0220195 19.5464456,32.1288352 19.5464456,32.2249648 C19.5464456,32.4941312 19.1127902,32.7227086 18.2497503,32.9085586 C17.3845941,33.0901375 16.6347738,33.2076336 15.9960238,33.2546266 L16.0002959,34.6346109 L29.3495147,34.6346109 L29.3495147,33.2524937 C29.3495147,33.2546298 28.9607194,33.1713156 28.5228038,33.0751859 L28.5228125,33.075 Z M9.53148437,23.6971875 C10.9798281,20.0378281 12.8447812,15.3403906 12.8447812,15.3403906 L16.2349687,23.6971875 L9.53148437,23.6971875 Z" id="Shape"></path>
            </g>
        </g>
    </g>
</svg>