<?xml version="1.0" encoding="UTF-8"?>
<svg width="217px" height="181px" viewBox="0 0 217 181" version="1.1" xmlns="http://www.w3.org/2000/svg" xmlns:xlink="http://www.w3.org/1999/xlink">
    <!-- Generator: Sketch 59.1 (86144) - https://sketch.com -->
    <title>np_happy-shit_2565236_9B9B9B</title>
    <desc>Created with Sketch.</desc>
    <g id="Page-1" stroke="none" stroke-width="1" fill="none" fill-rule="evenodd">
        <g id="shape-svg-copy" transform="translate(-657.000000, -382.000000)">
            <g id="np_happy-shit_2565236_9B9B9B" transform="translate(657.000000, 382.000000)">
                <path d="M102.399994,22.7999986 C89.6769872,27.0410009 69.9999958,28.7999983 65.1999961,55.1999967 C26.7999984,62.3999963 29.1999983,103.199994 29.1999983,103.199994 C29.1999983,103.199994 -18.6716813,148.554296 33.999998,172.79999 C93.9999944,175.19999 156.315471,176.412667 180.399989,172.79999 C228.399986,165.599999 204.399988,110.399993 180.399989,105.599999 C185.199989,50.399997 156.399991,62.3999963 144.399991,52.7999969 C146.799991,38.3999977 147.088481,16.6632062 137.199992,9.59999943 C125.199993,19.1999989 115.123001,18.5589964 102.399994,22.7999986 Z" id="Line" fill="#F4B752"></path>
                <path d="M65.8647961,93.7223944 C65.8647961,87.5162348 70.9086358,82.4723951 77.1054354,82.4723951 C83.302235,82.4723951 88.3367147,87.5162348 88.3367147,93.7223944 C88.3367147,99.928554 83.302235,104.981754 77.1054354,104.981754 C70.9086358,104.981754 65.8647961,99.928554 65.8647961,93.7223944 M137.639192,104.981754 C131.442392,104.981754 126.398552,99.928554 126.398552,93.7223944 C126.398552,87.5162348 131.442392,82.4723951 137.639192,82.4723951 C143.835991,82.4723951 148.870471,87.5162348 148.870471,93.7223944 C148.870471,99.928554 143.835991,104.981754 137.639192,104.981754 M122.779833,127.387912 C120.333033,134.559832 113.601753,139.369192 106.035994,139.369192 C98.4798341,139.369192 91.7485545,134.559832 89.3015147,127.387912 C88.0640268,123.759833 84.117035,121.819193 80.4983152,123.065993 C76.8702354,124.303481 74.9389555,128.250472 76.1763955,131.878552 C80.5451152,144.665991 92.5451145,153.263031 106.034794,153.263031 C119.534793,153.263031 131.534792,144.666231 135.893192,131.878552 C137.140064,128.250472 135.208808,124.303673 131.580632,123.065993 C127.961912,121.819121 124.015113,123.759737 122.777433,127.387912 L122.779833,127.387912 Z M173.89263,166.117384 L42.8958374,166.117384 C27.1083984,166.117384 14.2638391,153.994791 14.2638391,139.097512 C14.2638391,127.228792 22.3263987,116.860073 34.335758,113.316713 C36.3513738,112.726097 37.9919177,111.235457 38.7889577,109.285433 C39.5858296,107.335434 39.4545736,105.122874 38.4327017,103.285434 C36.2764458,99.3947941 35.1795019,95.1947943 35.1795019,90.7886346 C35.1795019,75.9105555 47.9950211,63.8078362 63.7635002,63.7790362 L63.8385002,63.7790362 C67.61658,63.7790362 70.6916998,60.7509564 70.7665798,56.9635166 C71.0478358,42.3667175 83.854019,30.4891182 99.3217781,30.4507182 L99.3405269,30.4507182 C101.768607,30.4975926 120.359246,30.4788438 133.785325,18.7975189 C134.488453,20.3537748 135.200941,22.0975187 135.829069,24.0100786 C139.072909,33.806878 138.857149,43.1162374 135.172813,51.6652769 C134.197813,53.9246608 134.497813,56.5401566 135.960301,58.5278365 C137.422789,60.5155164 139.82286,61.5746363 142.26966,61.3216763 C143.375916,61.199802 144.472788,61.1435508 145.50414,61.1435508 C161.300939,61.1435508 174.145738,73.25611 174.145738,88.1531491 C174.145738,92.8686689 172.833226,97.5186686 170.339579,101.596988 C169.064579,103.678244 168.980195,106.265708 170.105204,108.431468 C171.22082,110.587724 173.395844,112.003388 175.823924,112.153388 C190.795843,113.090876 202.533522,124.922107 202.533522,139.098186 C202.533522,153.994985 189.689683,166.117384 173.891924,166.117384 M188.010643,88.1557891 C188.010643,67.3713104 171.820004,50.1685914 150.942645,47.5909916 C155.995845,23.449393 141.173926,3.65899418 140.461366,2.73259424 C139.092622,0.932594344 136.936246,-0.0799655952 134.676886,0.0138743992 C132.417503,0.0982487941 130.345607,1.28887432 129.126887,3.19195421 C120.352007,16.8419534 100.475688,16.5887534 99.6332885,16.5700334 L99.6051653,16.5700334 L99.3895397,16.5700334 C88.2333803,16.5700334 77.705061,20.6951532 69.7183414,28.1855527 C63.2683418,34.2417124 59.0683421,41.9481119 57.5402622,50.3387514 C37.0747434,53.2732312 21.3146643,70.2981102 21.3146643,90.790749 C21.3146643,94.8781887 21.9615363,98.9469085 23.2084082,102.837548 C17.6584085,105.622028 12.8116088,109.568828 8.95840907,114.472028 C3.3616094,121.615867 0.399049576,130.128187 0.399049576,139.100826 C0.399049576,161.656985 19.4677684,180.004024 42.895847,180.004024 L173.892639,180.004024 C197.330078,180.004024 216.399037,161.657225 216.399037,139.100826 C216.399037,120.791467 203.733517,105.068828 186.202239,99.9592284 C187.392854,96.1437087 188.011622,92.1685889 188.011622,88.1560291 L188.010643,88.1557891 Z" id="Shape" fill="#7A5317" fill-rule="nonzero"></path>
            </g>
        </g>
    </g>
</svg>