<?xml version="1.0" encoding="UTF-8"?>
<svg width="38px" height="35px" viewBox="0 0 38 35" version="1.1" xmlns="http://www.w3.org/2000/svg" xmlns:xlink="http://www.w3.org/1999/xlink">
    <!-- Generator: Sketch 59.1 (86144) - https://sketch.com -->
    <title>np_increase-font-size</title>
    <desc>Created with Sketch.</desc>
    <g id="Page-1" stroke="none" stroke-width="1" fill="none" fill-rule="evenodd">
        <g id="Artboard" transform="translate(-138.000000, -68.000000)" fill="#9B9B9B" fill-rule="nonzero">
            <g id="np_increase-font-size" transform="translate(138.000000, 68.000000)">
                <path d="M20.425,32.5 C19.6333333,32.5 19.1583333,32.34375 18.8416667,32.1875 C18.525,32.03125 18.525,31.875 18.525,31.5625 L18.525,2.5 L18.6833333,2.5 C20.5833333,2.5 22.0083333,2.65625 23.1166667,2.8125 C24.225,2.96875 25.0166667,3.125 25.4916667,3.4375 C26.125,3.75 26.4416667,4.0625 26.7583333,4.375 C27.075,4.84375 27.2333333,5.3125 27.3916667,5.9375 L28.6583333,11.25 L31.35,11.25 L31.35,0.3125 L0.95,0.3125 L0,11.09375 L2.85,11.09375 L4.43333333,5.15625 C4.59166667,4.53125 4.90833333,4.0625 5.06666667,3.75 C5.38333333,3.4375 5.85833333,3.125 6.49166667,2.96875 C7.125,2.8125 7.91666667,2.65625 9.025,2.65625 C10.1333333,2.65625 11.5583333,2.5 13.3,2.5 L13.4583333,2.5 L13.4583333,31.5625 C13.4583333,31.875 13.3,32.03125 12.9833333,32.1875 C12.6666667,32.34375 12.1916667,32.5 11.4,32.5 L7.91666667,32.8125 L7.75833333,34.6875 L23.9083333,34.6875 L23.75,32.8125 L20.425,32.5 Z M33.25,19.0625 L33.25,14.375 L30.0833333,14.375 L30.0833333,19.0625 L25.3333333,19.0625 L25.3333333,22.1875 L30.0833333,22.1875 L30.0833333,26.875 L33.25,26.875 L33.25,22.1875 L38,22.1875 L38,19.0625 L33.25,19.0625 Z" id="Shape"></path>
            </g>
        </g>
    </g>
</svg>