<?xml version="1.0" encoding="UTF-8"?>
<svg width="34px" height="35px" viewBox="0 0 34 35" version="1.1" xmlns="http://www.w3.org/2000/svg" xmlns:xlink="http://www.w3.org/1999/xlink">
    <!-- Generator: Sketch 59.1 (86144) - https://sketch.com -->
    <title>np_print</title>
    <desc>Created with Sketch.</desc>
    <g id="Page-1" stroke="none" stroke-width="1" fill="none" fill-rule="evenodd">
        <g id="Artboard" transform="translate(-1050.000000, -165.000000)" fill="#9B9B9B" fill-rule="nonzero">
            <g id="universal-edit-button" transform="translate(0.000000, 144.000000)">
                <g id="np_print" transform="translate(1050.000000, 21.000000)">
                    <path d="M31.1325245,7.45617812 L27.4894811,7.45617812 L27.4894811,2.98913745 C27.4894811,1.47776578 26.2868163,0.275100982 24.7754446,0.275100982 L9.03737307,0.275100982 C7.55953857,0.275100982 6.32333661,1.51267742 6.32333661,2.98913745 L6.32333661,7.45617812 L2.71396774,7.45617812 C1.23613324,7.45617812 -6.87237027e-05,8.69375456 -6.87237027e-05,10.1702146 L-6.87237027e-05,25.8048569 C-6.87237027e-05,27.3175687 1.20259607,28.5202335 2.71396774,28.5202335 L6.35701122,28.5202335 L6.35701122,31.9564187 C6.35701122,33.4677903 7.55967602,34.6704551 9.07104769,34.6704551 L24.8091192,34.6704551 C26.2869537,34.6704551 27.5231557,33.4328787 27.5231557,31.9564187 L27.5244979,28.5202335 L31.1675413,28.5202335 C32.6453758,28.5202335 33.8815778,27.2826571 33.8815778,25.8061971 L33.8815778,10.1715547 C33.8466799,8.65884292 32.6091241,7.45617812 31.1326297,7.45617812 L31.1325245,7.45617812 Z M8.48737728,2.98913745 C8.48737728,2.68041683 8.72764222,2.40526087 9.07125386,2.40526087 L24.8093254,2.40526087 C25.118046,2.40526087 25.393202,2.6804237 25.393202,2.98913745 L25.393202,7.45617812 L8.48737728,7.45617812 L8.48737728,2.98913745 Z M25.3597335,31.9912272 C25.3597335,32.2999478 25.1194686,32.5751038 24.7758569,32.5751038 L9.03778541,32.5751038 C8.7290648,32.5751038 8.45390884,32.299941 8.45390884,31.9912272 L8.45390884,22.1630505 L25.3262651,22.1630505 L25.3262651,31.9912272 L25.3597335,31.9912272 Z M31.6816269,25.806094 C31.6816269,26.1148146 31.441362,26.3899705 31.0977504,26.3899705 L27.489756,26.3899705 L27.489756,20.0330281 L6.3221683,20.0330281 L6.3221683,26.3899705 L2.71417391,26.3899705 C2.4054533,26.3899705 2.13029734,26.1148077 2.13029734,25.806094 L2.13029734,10.1714516 C2.13029734,9.862731 2.40546017,9.58757504 2.71417391,9.58757504 L6.35721739,9.58757504 L27.489756,9.58623286 L31.1327994,9.58623286 C31.4415201,9.58623286 31.716676,9.86139569 31.716676,10.1701094 L31.6816269,25.806094 Z" id="Shape"></path>
                    <path d="M11.5112202,26.3218654 L22.3352034,26.3218654 C22.9190799,26.3218654 23.4009705,25.8413492 23.4009705,25.2560982 C23.4009705,24.6722216 22.9204544,24.190331 22.3352034,24.190331 L11.5112202,24.190331 C10.9273436,24.190331 10.445453,24.6708471 10.445453,25.2560982 C10.445453,25.8399748 10.892432,26.3218654 11.5112202,26.3218654 Z" id="Path"></path>
                    <path d="M11.5112202,30.547001 L22.3352034,30.547001 C22.9190799,30.547001 23.4009705,30.0664825 23.4009705,29.4812314 C23.4009705,28.8973548 22.9204544,28.4154642 22.3352034,28.4154642 L11.5112202,28.4168068 C10.9273436,28.4168068 10.445453,28.8973229 10.445453,29.4825739 C10.445453,30.0664505 10.892432,30.547001 11.5112202,30.547001 L11.5112202,30.547001 Z" id="Path"></path>
                </g>
            </g>
        </g>
    </g>
</svg>