<?xml version="1.0" encoding="UTF-8"?>
<svg width="42px" height="35px" viewBox="0 0 42 35" version="1.1" xmlns="http://www.w3.org/2000/svg" xmlns:xlink="http://www.w3.org/1999/xlink">
    <!-- Generator: Sketch 59.1 (86144) - https://sketch.com -->
    <title>np_reset</title>
    <desc>Created with Sketch.</desc>
    <g id="Page-1" stroke="none" stroke-width="1" fill="none" fill-rule="evenodd">
        <g id="Artboard" transform="translate(-880.000000, -165.000000)" fill="#9B9B9B" fill-rule="nonzero">
            <g id="universal-edit-button" transform="translate(0.000000, 144.000000)">
                <g id="np_reset" transform="translate(880.000000, 21.000000)">
                    <path d="M11.2082111,27.1583578 C7.80332903,23.7534757 6.63784751,19.0117126 7.62986041,14.6129208 L11.2940833,15.8203038 L8.66545601,5.17293431 L0.215326979,12.2000516 L3.92334809,13.4074346 C2.50042258,19.1412968 4.00922886,25.4338452 8.44974106,29.9184229 C13.6667323,35.1354141 21.426263,36.3407279 27.8045974,33.4529754 L26.8565551,29.57321 C21.8132912,32.2018372 15.4328015,31.3834223 11.207737,27.158444 L11.2082111,27.1583578 Z" id="Path"></path>
                    <path d="M37.4604282,21.9413666 C38.8833537,16.2075044 37.3745474,9.91495601 32.9340352,5.4303783 C27.717044,0.213387097 20.0014839,-0.950111437 13.6649648,1.85202757 L14.613007,5.73179296 C19.656271,3.18908094 25.99279,4.00745279 30.1760393,8.18863284 C33.5809214,11.593515 34.7464029,16.335278 33.75439,20.7340698 L30.0901672,19.5266868 L32.7187944,30.1757806 L41.1689235,23.1486633 L37.4604282,21.9413666 Z" id="Path"></path>
                </g>
            </g>
        </g>
    </g>
</svg>