<?xml version="1.0" encoding="UTF-8"?>
<svg fill="#6A6A6A" width="100pt" height="100pt" version="1.1" viewBox="0 0 100 100" xmlns="http://www.w3.org/2000/svg">
 <g>
  <path d="m91.801 43.301 5.5-18.301c0.69922-2.5-0.69922-5.1016-3.1016-5.8984-2.5-0.69922-5.1016 0.69922-5.8984 3.1016l-2 6.8008c-7.3008-12.402-20.801-20.805-36.301-20.805-17.301 0-32.199 10.602-38.602 25.602-1.3008 3.1016 1 6.6016 4.3008 6.6016 1.8984 0 3.6016-1.1016 4.3008-2.8008 5-11.801 16.5-20 30-20 12.199 0 22.898 6.8008 28.398 16.801l-8.0977-2.4023c-2.5-0.69922-5.1016 0.69922-5.8984 3.1016-0.69922 2.5 0.69922 5.1016 3.1016 5.8984l18.301 5.5c2.5938 0.69922 5.1953-0.69922 5.9961-3.1992z"/>
  <path d="m11.699 77.699 2-6.8008c7.3008 12.5 20.801 20.902 36.301 20.902 17.301 0 32.199-10.602 38.602-25.602 1.3008-3.1016-1-6.6016-4.3008-6.6016-1.8984 0-3.6016 1.1016-4.3008 2.8008-5 11.801-16.5 20-30 20-12.199 0-22.898-6.8008-28.398-16.801l8.1016 2.3984c2.5 0.69922 5.1016-0.69922 5.8984-3.1016 0.69922-2.5-0.69922-5.1016-3.1016-5.8984l-18.301-5.5c-2.5-0.69922-5.1016 0.69922-5.8984 3.1992l-5.6016 18.305c-0.69922 2.5 0.69922 5.1016 3.1016 5.8984 2.5 0.70312 5.1992-0.69922 5.8984-3.1992z"/>
 </g>
</svg>
