<?xml version="1.0" encoding="UTF-8"?>
<svg fill="#6A6A6A" width="100pt" height="100pt" version="1.1" viewBox="0 0 100 100" xmlns="http://www.w3.org/2000/svg">
 <path d="m40.625 54.688h-18.75c-2.5898 0-4.6875 2.0977-4.6875 4.6875s2.0977 4.6875 4.6875 4.6875h7.4336l-23.305 23.305 0.003906 0.003906c-0.8125 0.84375-1.3203 1.9883-1.3203 3.2539 0 2.5898 2.0977 4.6875 4.6875 4.6875 1.2656 0 2.4102-0.50781 3.2539-1.3242l0.003906 0.007813 23.305-23.305v7.4336c0 2.5898 2.0977 4.6875 4.6875 4.6875s4.6875-2.0977 4.6875-4.6875v-18.75c0-2.5898-2.0977-4.6875-4.6875-4.6875zm18.75-9.375h18.75c2.5898 0 4.6875-2.0977 4.6875-4.6875s-2.0977-4.6875-4.6875-4.6875h-7.4336l23.305-23.305-0.003906-0.003906c0.8125-0.84375 1.3203-1.9883 1.3203-3.2539 0-2.5898-2.0977-4.6875-4.6875-4.6875-1.2656 0-2.4102 0.50781-3.2539 1.3242l-0.003906-0.003907-23.305 23.301v-7.4336c0-2.5898-2.0977-4.6875-4.6875-4.6875s-4.6875 2.0977-4.6875 4.6875v18.75c0 2.5898 2.0977 4.6875 4.6875 4.6875zm34.621 42.055l-23.305-23.305h7.4336c2.5898 0 4.6875-2.0977 4.6875-4.6875s-2.0977-4.6875-4.6875-4.6875h-18.75c-2.5898 0-4.6875 2.0977-4.6875 4.6875v18.75c0 2.5898 2.0977 4.6875 4.6875 4.6875s4.6875-2.0977 4.6875-4.6875v-7.4336l23.305 23.305 0.003906-0.003906c0.84375 0.8125 1.9883 1.3203 3.2539 1.3203 2.5898 0 4.6875-2.0977 4.6875-4.6875 0-1.2656-0.50781-2.4102-1.3242-3.2539zm-53.371-70.18c-2.5898 0-4.6875 2.0977-4.6875 4.6875v7.4336l-23.305-23.305-0.003906 0.007813c-0.84375-0.81641-1.9883-1.3242-3.2539-1.3242-2.5898 0-4.6875 2.0977-4.6875 4.6875 0 1.2656 0.50781 2.4102 1.3242 3.2539l-0.007813 0.003906 23.305 23.305h-7.4336c-2.5898 0-4.6875 2.0977-4.6875 4.6875s2.0977 4.6875 4.6875 4.6875h18.75c2.5898 0 4.6875-2.0977 4.6875-4.6875v-18.75c0-2.5898-2.0977-4.6875-4.6875-4.6875z"/>
</svg>
