<?xml version="1.0" encoding="UTF-8"?>
<svg width="208px" height="198px" viewBox="0 0 208 198" version="1.1" xmlns="http://www.w3.org/2000/svg" xmlns:xlink="http://www.w3.org/1999/xlink">
    <!-- Generator: Sketch 59.1 (86144) - https://sketch.com -->
    <title>np_star_1187909_9B9B9B</title>
    <desc>Created with Sketch.</desc>
    <g id="Page-1" stroke="none" stroke-width="1" fill="none" fill-rule="evenodd">
        <g id="shape-svg" transform="translate(-419.000000, -498.000000)" fill="#9B9B9B" fill-rule="nonzero">
            <g id="np_star_1187909_9B9B9B" transform="translate(419.000000, 498.000000)">
                <path d="M100.662366,3.19182796 C102.712086,-0.949677419 106.055484,-0.949677419 108.096774,3.19182796 L133.886022,55.452043 C135.935742,59.5935484 141.345806,63.5333333 145.915699,64.1886022 L203.593118,72.5890323 C208.163011,73.2526667 209.204731,76.4365591 205.894839,79.6623656 L164.161505,120.337634 C160.851613,123.563441 158.785161,129.930968 159.566452,134.484086 L169.411828,191.927097 C170.193075,196.480215 167.479699,198.445806 163.396989,196.295269 L111.809892,169.161935 C107.718925,167.011398 101.023656,167.011398 96.9408602,169.161935 L45.3537634,196.278065 C41.2627957,198.428602 38.5576344,196.462875 39.3389247,191.909892 L49.1926882,134.466882 C49.9739355,129.913763 47.9073978,123.546237 44.5976344,120.32043 L2.86430108,79.6451613 C-0.445591398,76.4193548 0.587741935,73.243871 5.16602151,72.571828 L62.8434409,64.1713978 C67.4133333,63.5077634 72.8316129,59.567957 74.8731183,55.4348387 L100.662366,3.19182796 Z" id="Path"></path>
            </g>
        </g>
    </g>
</svg>