<?xml version="1.0" encoding="UTF-8"?>
<svg width="198px" height="198px" viewBox="0 0 198 198" version="1.1" xmlns="http://www.w3.org/2000/svg" xmlns:xlink="http://www.w3.org/1999/xlink">
    <!-- Generator: Sketch 59.1 (86144) - https://sketch.com -->
    <title>np_star_2157417_9B9B9B</title>
    <desc>Created with Sketch.</desc>
    <g id="Page-1" stroke="none" stroke-width="1" fill="none" fill-rule="evenodd">
        <g id="shape-svg" transform="translate(-165.000000, -498.000000)" fill="#9B9B9B" fill-rule="nonzero">
            <g id="np_star_2157417_9B9B9B" transform="translate(165.000000, 498.000000)">
                <path d="M129.835417,111.5 L145.875417,97.7466667 C149.415417,94.6216667 150.872083,89.8283333 149.415417,85.4583333 C147.958708,81.08 143.995417,77.955 139.41375,77.54 L118.165833,75.8717083 L110.044167,56.2917083 C108.172417,51.913375 104.005833,49.2117083 99.4158333,49.2117083 C94.6225,49.2117083 90.4558333,51.9217083 88.7875,56.2917083 L80.6658333,75.8717083 L59.4179167,77.54 C54.83625,77.9550417 50.8729167,81.08 49.41625,85.4583333 C47.9595833,89.8366667 49.41625,94.8333333 52.95625,97.7466667 L68.99625,111.5 L63.9995833,132.121667 C62.9579167,136.703333 64.6262083,141.496667 68.3779167,144.206667 C72.129625,146.916667 77.12625,147.12 81.2929167,144.833292 L99.41625,133.789958 L117.539583,144.833292 C119.411333,145.874958 121.494583,146.501583 123.577917,146.501583 C126.07625,146.501583 128.37125,145.6715 130.454583,144.206583 C134.20625,141.496583 136.077917,136.70325 134.832917,132.121583 L129.835417,111.5 Z M121.087083,102.336667 C117.750417,105.25 116.29375,109.628333 117.335417,113.795 L121.917083,132.756667 L105.250417,122.551667 C103.378667,121.51 101.295417,120.883375 99.2120833,120.883375 C97.12875,120.883375 95.0454167,121.51 93.17375,122.551667 L76.5070833,132.756667 L81.08875,113.795 C82.1304167,109.628333 80.6737083,105.25 77.3370833,102.336667 L62.5420833,89.625 L81.91875,87.9567083 C86.2970833,87.5416667 90.0404167,84.8317083 91.70875,80.8767083 L99.2120833,62.9567083 L106.715417,80.8767083 C108.383708,84.8317083 112.135417,87.5417083 116.505417,87.9567083 L135.882083,89.625 L121.087083,102.336667 Z" id="Shape"></path>
                <path d="M99.2125,31.5041667 C102.7525,31.5041667 105.4625,28.5908333 105.4625,25.2541667 L105.4625,6.50416667 C105.4625,2.96416667 102.549167,0.254166667 99.2125,0.254166667 C95.8758333,0.254166667 92.9625,3.1675 92.9625,6.50416667 L92.9625,25.2541667 C92.9625,28.5827083 95.8758333,31.5041667 99.2125,31.5041667 Z" id="Path"></path>
                <path d="M42.5375,51.0833333 C43.79075,52.3365833 45.4508333,52.9550833 46.9158333,52.9550833 C48.584125,52.9550833 50.0408333,52.3284583 51.2941667,51.0833333 C53.7925,48.585 53.7925,44.6216667 51.2941667,42.1233333 L37.9641667,28.7933333 C35.4658333,26.295 31.5025,26.295 29.0041667,28.7933333 C26.5058333,31.2916667 26.5058333,35.255 29.0041667,37.7533333 L42.5375,51.0833333 Z" id="Path"></path>
                <path d="M31.5041667,98.7875 C31.5041667,95.2475 28.5908333,92.5375 25.2541667,92.5375 L6.50416667,92.5375 C2.96416667,92.5375 0.254166667,95.2475 0.254166667,98.7875 C0.254166667,102.3275 3.1675,105.0375 6.50416667,105.0375 L25.2541667,105.0375 C28.5827083,105.0375 31.5041667,102.124167 31.5041667,98.7875 Z" id="Path"></path>
                <path d="M42.1229167,146.502083 L28.7929167,159.832083 C26.2945833,162.330417 26.2945833,166.29375 28.7929167,168.792083 C30.0461667,170.045333 31.70625,170.663833 33.17125,170.663833 C34.6279583,170.663833 36.29625,170.037208 37.5495833,168.792083 L50.8795833,155.462083 C53.3779167,152.96375 53.3779167,149.000417 50.8795833,146.502083 C48.5845833,144.207083 44.6214583,144.207083 42.123125,146.502083 L42.1229167,146.502083 Z" id="Path"></path>
                <path d="M98.7875,166.495833 C95.2475,166.495833 92.5375,169.409167 92.5375,172.745833 L92.5375,191.495833 C92.5375,195.035833 95.4508333,197.745833 98.7875,197.745833 C102.124167,197.745833 105.0375,194.8325 105.0375,191.495833 L105.0375,172.745833 C105.0375,169.417292 102.124167,166.495833 98.7875,166.495833 Z" id="Path"></path>
                <path d="M155.4625,146.916667 C152.964167,144.418333 149.000833,144.418333 146.5025,146.916667 C144.004167,149.415 144.004167,153.378333 146.5025,155.876667 L159.8325,169.206667 C161.08575,170.459917 162.745833,171.078417 164.210833,171.078417 C165.667542,171.078417 167.335833,170.451792 168.589167,169.206667 C171.0875,166.708333 171.0875,162.745 168.589167,160.246667 L155.4625,146.916667 Z" id="Path"></path>
                <path d="M191.708333,92.9625 L172.958333,92.9625 C169.418333,92.9625 166.708333,95.8758333 166.708333,99.2125 C166.708333,102.549167 169.621667,105.4625 172.958333,105.4625 L191.708333,105.4625 C195.248333,105.4625 197.958333,102.549167 197.958333,99.2125 C197.958333,95.8758333 195.045,92.9625 191.708333,92.9625 Z" id="Path"></path>
                <path d="M151.295833,53.16675 C152.964125,53.16675 154.420833,52.5400417 155.674167,51.2949167 L169.004167,37.9649167 C171.5025,35.4665833 171.5025,31.50325 169.004167,29.0049167 C166.505833,26.5065833 162.5425,26.5065833 160.044167,29.0049167 L146.9175,42.5384583 C144.419167,45.0367917 144.419167,49.000125 146.9175,51.4984583 C148.17075,52.7517083 149.830833,53.16675 151.295833,53.16675 L151.295833,53.16675 Z" id="Path"></path>
            </g>
        </g>
    </g>
</svg>