<?xml version="1.0" encoding="UTF-8"?>
<svg width="35px" height="35px" viewBox="0 0 35 35" version="1.1" xmlns="http://www.w3.org/2000/svg" xmlns:xlink="http://www.w3.org/1999/xlink">
    <!-- Generator: Sketch 59.1 (86144) - https://sketch.com -->
    <title>np_share</title>
    <desc>Created with Sketch.</desc>
    <g id="Page-1" stroke="none" stroke-width="1" fill="none" fill-rule="evenodd">
        <g id="Artboard" transform="translate(-1130.000000, -165.000000)" fill="#9B9B9B" fill-rule="nonzero">
            <g id="universal-edit-button" transform="translate(0.000000, 144.000000)">
                <g id="np_share" transform="translate(1130.000000, 21.000000)">
                    <path d="M31.7828226,0.754758065 C32.4980206,0.0412724014 33.6557115,0.0412724014 34.3709095,0.754758065 C35.0843952,1.46995609 35.0843952,2.62764695 34.3709095,3.34284498 L17.9058557,19.8078987 C17.1906577,20.5213844 16.0329668,20.5213844 15.3177688,19.8078987 C14.6042832,19.0927007 14.6042832,17.9350099 15.3177688,17.2198118 L31.7828226,0.754758065 Z" id="Path"></path>
                    <path d="M31.2475986,3.87784946 L23.9292115,3.87784946 C22.9190036,3.87784946 22.0991756,3.05973387 22.0991756,2.04952599 C22.0991756,1.0393181 22.9190036,0.219490143 23.9292115,0.219490143 L33.0758781,0.219490143 C34.086086,0.219490143 34.905914,1.0393181 34.905914,2.04952599 L34.905914,11.1961927 C34.905914,12.2064005 34.086086,13.0262285 33.0758781,13.0262285 C32.0656703,13.0262285 31.2475547,12.2064005 31.2475547,11.1961927 L31.2475986,3.87784946 Z" id="Path"></path>
                    <path d="M27.5875269,19.4287634 C27.5875269,18.4185556 28.4073548,17.5987276 29.4175627,17.5987276 C30.4277706,17.5987276 31.2475986,18.4185556 31.2475986,19.4287634 L31.2475986,29.7196416 C31.2475986,32.625043 28.8927446,34.9796774 25.9875627,34.9796774 L5.40624552,34.9796774 C2.50084409,34.9796774 0.146209677,32.6248235 0.146209677,29.7196416 L0.146209677,9.13832437 C0.146209677,6.23292294 2.50106362,3.87828853 5.40624552,3.87828853 L16.5546237,3.87828853 C17.5648315,3.87828853 18.3846595,4.69811649 18.3846595,5.70832437 C18.3846595,6.71853226 17.5648315,7.53836022 16.5546237,7.53836022 L5.40624552,7.53836022 C4.52297222,7.53836022 3.80606183,8.25527061 3.80606183,9.13854391 L3.80606183,29.7198611 C3.80606183,30.6031344 4.52297222,31.3200448 5.40624552,31.3200448 L25.9875627,31.3200448 C26.870836,31.3200448 27.5877464,30.6031344 27.5877464,29.7198611 L27.5875269,19.4287634 Z" id="Path"></path>
                </g>
            </g>
        </g>
    </g>
</svg>