<?xml version="1.0" encoding="UTF-8"?>
<svg fill="#6A6A6A" width="100pt" height="100pt" version="1.1" viewBox="0 0 100 100" xmlns="http://www.w3.org/2000/svg">
 <g>
  <path d="m66.602 67-10.801 10.898v-46.098c0-3.1992-2.6016-5.8008-5.8008-5.8008s-5.8008 2.6016-5.8008 5.8008v46.102l-10.801-10.902c-2.1992-2.1992-5.8984-2.1992-8.1016 0-2.1992 2.1992-2.1992 5.8984 0 8.1016l20.699 20.699c1.1016 1.1016 2.5 1.6992 4.1016 1.6992 1.5 0 3-0.60156 4.1016-1.6992l20.699-20.699c2.1992-2.1992 2.1992-5.8984 0-8.1016-2.3984-2.3008-6-2.3008-8.2969 0z"/>
  <path d="m84.602 2.5h-69.203c-3.1992 0-5.8008 2.6016-5.8008 5.8008v22.199c0 3.1992 2.6016 5.8008 5.8008 5.8008 3.1992 0 5.8008-2.6016 5.8008-5.8008v-16.5h57.699v16.5c0 3.1992 2.6016 5.8008 5.8008 5.8008s5.8008-2.6016 5.8008-5.8008v-22.199c-0.10156-3.1992-2.6992-5.8008-5.8984-5.8008z"/>
 </g>
</svg>
