<?xml version="1.0" encoding="UTF-8"?>
<svg width="35px" height="35px" viewBox="0 0 35 35" version="1.1" xmlns="http://www.w3.org/2000/svg" xmlns:xlink="http://www.w3.org/1999/xlink">
    <!-- Generator: Sketch 59.1 (86144) - https://sketch.com -->
    <title>np_save</title>
    <desc>Created with Sketch.</desc>
    <g id="Page-1" stroke="none" stroke-width="1" fill="none" fill-rule="evenodd">
        <g id="Artboard" transform="translate(-971.000000, -165.000000)" fill="#9B9B9B" fill-rule="nonzero">
            <g id="universal-edit-button" transform="translate(0.000000, 144.000000)">
                <g id="np_save" transform="translate(971.000000, 21.000000)">
                    <path d="M34.9934286,25.4883423 L34.9934286,33.2045251 C34.9934286,33.3588839 34.9709922,33.5012385 34.938405,33.6333014 C34.7840462,34.3913964 34.1151523,34.9607799 33.3244785,34.9607799 L1.78885125,34.9607799 C0.943293907,34.9607799 0.24183871,34.312452 0.152620072,33.4891993 C0.130323754,33.389724 0.130323754,33.3022529 0.130323754,33.1924858 L0.130323754,25.476303 C0.130323754,24.565588 0.876388271,23.8297977 1.77682913,23.8297977 C2.22617142,23.8297977 2.64469114,24.0167441 2.93965709,24.3134751 C3.23637053,24.6101885 3.42333451,25.0269608 3.42333451,25.476303 L3.42333451,31.6557475 L31.7107359,31.6557475 L31.7107359,25.476303 C31.7107359,24.565588 32.4568005,23.8297977 33.3572413,23.8297977 C33.8065836,23.8297977 34.2251033,24.0167441 34.5200693,24.3134751 C34.806491,24.6204803 34.9934286,25.0372349 34.9934286,25.4883335 L34.9934286,25.4883423 Z" id="Path"></path>
                    <path d="M27.0575717,17.7598656 L18.9673029,25.8501344 C18.957012,25.8724307 18.9347157,25.8827216 18.9227111,25.8947262 C18.6259977,26.1914396 18.2418043,26.3784036 17.8576197,26.4332871 C17.8250325,26.4332871 17.7924444,26.4435775 17.7581444,26.4435775 C17.6929692,26.4538684 17.6260815,26.4538684 17.5609063,26.4538684 L17.3739599,26.4435775 C17.3413731,26.4435775 17.3087846,26.4332871 17.2744846,26.4332871 C16.8800082,26.3784036 16.5061154,26.1914572 16.2093932,25.8947262 C16.1991023,25.8844357 16.176806,25.8621394 16.1648014,25.8501344 L8.07453262,17.7598656 C7.70063978,17.3859728 7.5154233,16.8920036 7.5154233,16.398052 C7.5154233,15.9041004 7.70236971,15.4101487 8.07453262,15.0362384 C8.82059713,14.2901738 10.0400649,14.2901738 10.7964036,15.0362384 L15.6586437,19.8984785 L15.6637892,2.08548566 C15.6637892,1.03242473 16.5316512,0.164562724 17.5847121,0.164562724 C18.1112426,0.164562724 18.59492,0.384096774 18.9465257,0.723672043 C19.2981227,1.075269 19.505635,1.54692473 19.505635,2.08548566 L19.505635,19.9002348 L24.3678752,15.0379946 C25.1139397,14.2919301 26.3334074,14.2919301 27.0897462,15.0379946 C27.8032318,15.7960896 27.8032318,17.0138011 27.057159,17.7598656 L27.0575717,17.7598656 Z" id="Path"></path>
                </g>
            </g>
        </g>
    </g>
</svg>