<?xml version="1.0" encoding="UTF-8"?>
<svg width="26px" height="26px" viewBox="0 0 26 26" version="1.1" xmlns="http://www.w3.org/2000/svg" xmlns:xlink="http://www.w3.org/1999/xlink">
    <!-- Generator: Sketch 58 (84663) - https://sketch.com -->
    <title>picture</title>
    <desc>Created with Sketch.</desc>
    <g id="Page-1" stroke="none" stroke-width="1" fill="none" fill-rule="evenodd">
        <g id="Desktop" transform="translate(-39.000000, -209.000000)" fill="#303030" fill-rule="nonzero">
            <g id="Group-2" transform="translate(33.000000, 209.000000)">
                <g id="np_picture_2059804_000000" transform="translate(6.000000, 0.000000)">
                    <path d="M19.5535249,-3.55271368e-15 L6.26716577,-3.55271368e-15 C2.87766218,-3.55271368e-15 0.134482764,2.74317942 0.134482764,6.132683 L0.134482764,19.1500766 C0.134482764,22.5395802 2.87766218,25.2827596 6.26716577,25.2827596 L19.5535249,25.2827596 C22.9430285,25.2827596 25.6862079,22.5395802 25.6862079,19.1500766 L25.6862079,6.132683 C25.6862079,2.74317942 22.9430285,-3.55271368e-15 19.5535249,-3.55271368e-15 Z M18.8002063,5.35187607 C19.8224904,5.35187607 20.6556381,6.18609956 20.6556381,7.20730787 C20.6556381,8.22959205 19.8214146,9.06273967 18.8002063,9.06273967 C17.7779221,9.06273967 16.9447745,8.22851619 16.9447745,7.20730787 C16.9447745,6.18609956 17.7789979,5.35187607 18.8002063,5.35187607 L18.8002063,5.35187607 Z M19.9569732,18.4776951 L5.51379332,18.4776951 C4.92228433,18.4776951 4.49150914,17.8588269 4.76047467,17.2946448 L8.79495759,8.2307755 C9.09125002,7.55836168 10.0326294,7.55836168 10.3278459,8.2307755 L13.1794185,14.7123068 C13.2603179,14.927689 13.5555398,14.9539562 13.6900226,14.7658901 L15.6263592,12.0762348 C15.9489027,11.6192086 16.6486434,11.6192086 16.9711869,12.0762348 L20.6557456,17.1591454 C21.032916,17.7244033 20.6567962,18.4776951 19.9570539,18.4776951 L19.9569732,18.4776951 Z" id="picture"></path>
                </g>
            </g>
        </g>
    </g>
</svg>